<mxfile>
    <diagram id="qiJ68fFvvVzYDLmA62VG" name="Page-1">
        <mxGraphModel dx="1132" dy="800" grid="1" gridSize="10" guides="1" tooltips="1" connect="1" arrows="1" fold="1" page="1" pageScale="1" pageWidth="827" pageHeight="1169" math="0" shadow="0">
            <root>
                <mxCell id="0"/>
                <mxCell id="1" parent="0"/>
                <mxCell id="tvlWzFpPiQR5WW-yxeFQ-3" value="" style="ellipse;html=1;shape=startState;fillColor=#000000;strokeColor=#ff0000;" parent="1" vertex="1">
                    <mxGeometry x="200" y="180" width="30" height="30" as="geometry"/>
                </mxCell>
                <mxCell id="tvlWzFpPiQR5WW-yxeFQ-4" value="" style="edgeStyle=orthogonalEdgeStyle;html=1;verticalAlign=bottom;endArrow=open;endSize=8;strokeColor=#ff0000;" parent="1" source="tvlWzFpPiQR5WW-yxeFQ-3" edge="1">
                    <mxGeometry relative="1" as="geometry">
                        <mxPoint x="215" y="250" as="targetPoint"/>
                    </mxGeometry>
                </mxCell>
                <mxCell id="tvlWzFpPiQR5WW-yxeFQ-5" value="User clicks on the visualization type selection menu" style="rounded=1;whiteSpace=wrap;html=1;arcSize=40;fontColor=#000000;fillColor=#ffffc0;strokeColor=#ff0000;" parent="1" vertex="1">
                    <mxGeometry x="155" y="250" width="120" height="60" as="geometry"/>
                </mxCell>
                <mxCell id="tvlWzFpPiQR5WW-yxeFQ-6" value="" style="edgeStyle=orthogonalEdgeStyle;html=1;verticalAlign=bottom;endArrow=open;endSize=8;strokeColor=#ff0000;entryX=0;entryY=0.5;entryDx=0;entryDy=0;" parent="1" source="tvlWzFpPiQR5WW-yxeFQ-5" target="tvlWzFpPiQR5WW-yxeFQ-7" edge="1">
                    <mxGeometry relative="1" as="geometry">
                        <mxPoint x="560" y="280" as="targetPoint"/>
                    </mxGeometry>
                </mxCell>
                <mxCell id="tvlWzFpPiQR5WW-yxeFQ-7" value="Show available visualization options" style="rounded=1;whiteSpace=wrap;html=1;arcSize=40;fontColor=#000000;fillColor=#ffffc0;strokeColor=#ff0000;" parent="1" vertex="1">
                    <mxGeometry x="370" y="260" width="120" height="40" as="geometry"/>
                </mxCell>
                <mxCell id="tvlWzFpPiQR5WW-yxeFQ-8" value="" style="edgeStyle=orthogonalEdgeStyle;html=1;verticalAlign=bottom;endArrow=open;endSize=8;strokeColor=#ff0000;entryX=1;entryY=0.5;entryDx=0;entryDy=0;" parent="1" source="tvlWzFpPiQR5WW-yxeFQ-7" target="tvlWzFpPiQR5WW-yxeFQ-14" edge="1">
                    <mxGeometry relative="1" as="geometry">
                        <mxPoint x="320" y="400" as="targetPoint"/>
                        <Array as="points">
                            <mxPoint x="440" y="400"/>
                        </Array>
                    </mxGeometry>
                </mxCell>
                <mxCell id="tvlWzFpPiQR5WW-yxeFQ-9" value="User enters a social media user handle" style="rounded=1;whiteSpace=wrap;html=1;arcSize=40;fontColor=#000000;fillColor=#ffffc0;strokeColor=#ff0000;" parent="1" vertex="1">
                    <mxGeometry x="155" y="485" width="120" height="40" as="geometry"/>
                </mxCell>
                <mxCell id="tvlWzFpPiQR5WW-yxeFQ-10" value="" style="edgeStyle=orthogonalEdgeStyle;html=1;verticalAlign=bottom;endArrow=open;endSize=8;strokeColor=#ff0000;" parent="1" source="tvlWzFpPiQR5WW-yxeFQ-9" edge="1">
                    <mxGeometry relative="1" as="geometry">
                        <mxPoint x="215" y="560" as="targetPoint"/>
                    </mxGeometry>
                </mxCell>
                <mxCell id="tvlWzFpPiQR5WW-yxeFQ-14" value="&lt;font color=&quot;#000000&quot;&gt;User clicks &quot;Visualize&quot;&lt;/font&gt;" style="rhombus;whiteSpace=wrap;html=1;fillColor=#ffffc0;strokeColor=#ff0000;" parent="1" vertex="1">
                    <mxGeometry x="160" y="365" width="110" height="70" as="geometry"/>
                </mxCell>
                <mxCell id="tvlWzFpPiQR5WW-yxeFQ-15" value="yes" style="edgeStyle=orthogonalEdgeStyle;html=1;align=left;verticalAlign=bottom;endArrow=open;endSize=8;strokeColor=#ff0000;entryX=0.5;entryY=0;entryDx=0;entryDy=0;" parent="1" source="tvlWzFpPiQR5WW-yxeFQ-14" target="tvlWzFpPiQR5WW-yxeFQ-17" edge="1">
                    <mxGeometry x="0.5977" y="-90" relative="1" as="geometry">
                        <mxPoint x="620" y="470" as="targetPoint"/>
                        <Array as="points">
                            <mxPoint x="430" y="435"/>
                        </Array>
                        <mxPoint as="offset"/>
                    </mxGeometry>
                </mxCell>
                <mxCell id="tvlWzFpPiQR5WW-yxeFQ-16" value="no" style="edgeStyle=orthogonalEdgeStyle;html=1;align=left;verticalAlign=top;endArrow=open;endSize=8;strokeColor=#ff0000;entryX=0.5;entryY=0;entryDx=0;entryDy=0;" parent="1" source="tvlWzFpPiQR5WW-yxeFQ-14" target="tvlWzFpPiQR5WW-yxeFQ-9" edge="1">
                    <mxGeometry x="-1" relative="1" as="geometry">
                        <mxPoint x="220" y="485" as="targetPoint"/>
                    </mxGeometry>
                </mxCell>
                <mxCell id="tvlWzFpPiQR5WW-yxeFQ-17" value="ERROR: Invalid social media handle" style="rounded=1;whiteSpace=wrap;html=1;arcSize=40;fontColor=#000000;fillColor=#ffffc0;strokeColor=#ff0000;" parent="1" vertex="1">
                    <mxGeometry x="370" y="485" width="120" height="40" as="geometry"/>
                </mxCell>
                <mxCell id="tvlWzFpPiQR5WW-yxeFQ-23" value="&lt;font color=&quot;#000000&quot;&gt;Dataset exists&lt;br&gt;and user owns it&lt;/font&gt;" style="rhombus;whiteSpace=wrap;html=1;fillColor=#ffffc0;strokeColor=#ff0000;" parent="1" vertex="1">
                    <mxGeometry x="580" y="467.5" width="140" height="75" as="geometry"/>
                </mxCell>
                <mxCell id="tvlWzFpPiQR5WW-yxeFQ-24" value="no" style="edgeStyle=orthogonalEdgeStyle;html=1;align=left;verticalAlign=bottom;endArrow=open;endSize=8;strokeColor=#ff0000;entryX=1;entryY=0.5;entryDx=0;entryDy=0;" parent="1" source="tvlWzFpPiQR5WW-yxeFQ-23" target="tvlWzFpPiQR5WW-yxeFQ-17" edge="1">
                    <mxGeometry x="-0.0843" y="-5" relative="1" as="geometry">
                        <mxPoint x="490" y="547" as="targetPoint"/>
                        <mxPoint as="offset"/>
                    </mxGeometry>
                </mxCell>
                <mxCell id="tvlWzFpPiQR5WW-yxeFQ-25" value="yes" style="edgeStyle=orthogonalEdgeStyle;html=1;align=left;verticalAlign=top;endArrow=open;endSize=8;strokeColor=#ff0000;" parent="1" source="tvlWzFpPiQR5WW-yxeFQ-23" edge="1">
                    <mxGeometry x="-1" relative="1" as="geometry">
                        <mxPoint x="650" y="630" as="targetPoint"/>
                    </mxGeometry>
                </mxCell>
                <mxCell id="tvlWzFpPiQR5WW-yxeFQ-27" value="User clicks &quot;Visualize&quot;" style="rounded=1;whiteSpace=wrap;html=1;arcSize=40;fontColor=#000000;fillColor=#ffffc0;strokeColor=#ff0000;" parent="1" vertex="1">
                    <mxGeometry x="155" y="560" width="120" height="40" as="geometry"/>
                </mxCell>
                <mxCell id="tvlWzFpPiQR5WW-yxeFQ-28" value="" style="edgeStyle=orthogonalEdgeStyle;html=1;verticalAlign=bottom;endArrow=open;endSize=8;strokeColor=#ff0000;entryX=0.5;entryY=0;entryDx=0;entryDy=0;" parent="1" source="tvlWzFpPiQR5WW-yxeFQ-27" target="tvlWzFpPiQR5WW-yxeFQ-23" edge="1">
                    <mxGeometry relative="1" as="geometry">
                        <mxPoint x="215" y="630" as="targetPoint"/>
                        <Array as="points">
                            <mxPoint x="320" y="580"/>
                            <mxPoint x="320" y="450"/>
                            <mxPoint x="650" y="450"/>
                        </Array>
                    </mxGeometry>
                </mxCell>
                <mxCell id="tvlWzFpPiQR5WW-yxeFQ-29" value="Retrieve Dataset and create Visualization" style="rounded=1;whiteSpace=wrap;html=1;arcSize=40;fontColor=#000000;fillColor=#ffffc0;strokeColor=#ff0000;" parent="1" vertex="1">
                    <mxGeometry x="590" y="630" width="120" height="40" as="geometry"/>
                </mxCell>
                <mxCell id="tvlWzFpPiQR5WW-yxeFQ-30" value="" style="edgeStyle=orthogonalEdgeStyle;html=1;verticalAlign=bottom;endArrow=open;endSize=8;strokeColor=#ff0000;entryX=1;entryY=0.5;entryDx=0;entryDy=0;" parent="1" source="tvlWzFpPiQR5WW-yxeFQ-29" target="tvlWzFpPiQR5WW-yxeFQ-31" edge="1">
                    <mxGeometry relative="1" as="geometry">
                        <mxPoint x="280" y="650" as="targetPoint"/>
                    </mxGeometry>
                </mxCell>
                <mxCell id="tvlWzFpPiQR5WW-yxeFQ-31" value="Show Visualization" style="rounded=1;whiteSpace=wrap;html=1;arcSize=40;fontColor=#000000;fillColor=#ffffc0;strokeColor=#ff0000;" parent="1" vertex="1">
                    <mxGeometry x="370" y="630" width="120" height="40" as="geometry"/>
                </mxCell>
                <mxCell id="tvlWzFpPiQR5WW-yxeFQ-32" value="" style="edgeStyle=orthogonalEdgeStyle;html=1;verticalAlign=bottom;endArrow=open;endSize=8;strokeColor=#ff0000;entryX=0.5;entryY=0;entryDx=0;entryDy=0;" parent="1" source="tvlWzFpPiQR5WW-yxeFQ-31" target="tvlWzFpPiQR5WW-yxeFQ-33" edge="1">
                    <mxGeometry relative="1" as="geometry">
                        <mxPoint x="215" y="730" as="targetPoint"/>
                    </mxGeometry>
                </mxCell>
                <mxCell id="tvlWzFpPiQR5WW-yxeFQ-33" value="" style="ellipse;html=1;shape=endState;fillColor=#000000;strokeColor=#ff0000;" parent="1" vertex="1">
                    <mxGeometry x="415" y="720" width="30" height="30" as="geometry"/>
                </mxCell>
                <mxCell id="tvlWzFpPiQR5WW-yxeFQ-36" value="" style="endArrow=none;html=1;" parent="1" edge="1">
                    <mxGeometry width="50" height="50" relative="1" as="geometry">
                        <mxPoint x="330" y="790" as="sourcePoint"/>
                        <mxPoint x="330" y="160" as="targetPoint"/>
                    </mxGeometry>
                </mxCell>
                <mxCell id="tvlWzFpPiQR5WW-yxeFQ-37" value="" style="endArrow=none;html=1;" parent="1" edge="1">
                    <mxGeometry width="50" height="50" relative="1" as="geometry">
                        <mxPoint x="530" y="790" as="sourcePoint"/>
                        <mxPoint x="530" y="160" as="targetPoint"/>
                    </mxGeometry>
                </mxCell>
                <mxCell id="tvlWzFpPiQR5WW-yxeFQ-38" value="" style="edgeStyle=orthogonalEdgeStyle;html=1;verticalAlign=bottom;endArrow=open;endSize=8;strokeColor=#ff0000;entryX=0;entryY=0.5;entryDx=0;entryDy=0;exitX=0;exitY=0.5;exitDx=0;exitDy=0;" parent="1" source="tvlWzFpPiQR5WW-yxeFQ-17" target="tvlWzFpPiQR5WW-yxeFQ-33" edge="1">
                    <mxGeometry relative="1" as="geometry">
                        <mxPoint x="225" y="260" as="targetPoint"/>
                        <mxPoint x="225" y="220" as="sourcePoint"/>
                    </mxGeometry>
                </mxCell>
                <mxCell id="tvlWzFpPiQR5WW-yxeFQ-39" value="User Activity" style="text;html=1;strokeColor=none;fillColor=none;align=center;verticalAlign=middle;whiteSpace=wrap;rounded=0;" parent="1" vertex="1">
                    <mxGeometry x="180" y="140" width="80" height="20" as="geometry"/>
                </mxCell>
                <mxCell id="tvlWzFpPiQR5WW-yxeFQ-40" value="User Interface" style="text;html=1;strokeColor=none;fillColor=none;align=center;verticalAlign=middle;whiteSpace=wrap;rounded=0;" parent="1" vertex="1">
                    <mxGeometry x="380" y="140" width="100" height="20" as="geometry"/>
                </mxCell>
                <mxCell id="tvlWzFpPiQR5WW-yxeFQ-41" value="System" style="text;html=1;strokeColor=none;fillColor=none;align=center;verticalAlign=middle;whiteSpace=wrap;rounded=0;" parent="1" vertex="1">
                    <mxGeometry x="620" y="140" width="40" height="20" as="geometry"/>
                </mxCell>
                <mxCell id="tvlWzFpPiQR5WW-yxeFQ-42" value="Select Visualization" style="text;html=1;strokeColor=none;fillColor=none;align=center;verticalAlign=middle;whiteSpace=wrap;rounded=0;fontSize=24;fontStyle=1" parent="1" vertex="1">
                    <mxGeometry x="200" y="100" width="460" height="20" as="geometry"/>
                </mxCell>
                <mxCell id="tvlWzFpPiQR5WW-yxeFQ-43" value="&lt;font style=&quot;font-size: 11px&quot;&gt;yes&lt;/font&gt;" style="text;html=1;strokeColor=none;fillColor=none;align=center;verticalAlign=middle;whiteSpace=wrap;rounded=0;fontSize=11;" parent="1" vertex="1">
                    <mxGeometry x="275" y="415" width="40" height="20" as="geometry"/>
                </mxCell>
            </root>
        </mxGraphModel>
    </diagram>
</mxfile>